<svg width="16" height="16" viewBox="0 0 16 16" fill="none" xmlns="http://www.w3.org/2000/svg">
<path d="M2.64597 9.64597L7.64597 4.64597C7.69241 4.59948 7.74755 4.5626 7.80825 4.53744C7.86895 4.51228 7.93401 4.49933 7.99972 4.49933C8.06543 4.49933 8.13049 4.51228 8.19119 4.53744C8.25189 4.5626 8.30704 4.59948 8.35347 4.64597L13.3535 9.64597C13.4473 9.73979 13.5 9.86704 13.5 9.99972C13.5 10.1324 13.4473 10.2597 13.3535 10.3535C13.2597 10.4473 13.1324 10.5 12.9997 10.5C12.867 10.5 12.7398 10.4473 12.646 10.3535L7.99972 5.7066L3.35347 10.3535C3.30702 10.3999 3.25187 10.4368 3.19117 10.4619C3.13047 10.4871 3.06542 10.5 2.99972 10.5C2.93402 10.5 2.86897 10.4871 2.80827 10.4619C2.74758 10.4368 2.69243 10.3999 2.64597 10.3535C2.59952 10.307 2.56267 10.2519 2.53753 10.1912C2.51238 10.1305 2.49944 10.0654 2.49944 9.99972C2.49944 9.93403 2.51238 9.86897 2.53753 9.80827C2.56267 9.74758 2.59952 9.69243 2.64597 9.64597Z" fill="black"/>
</svg>
