<svg width="23" height="18" viewBox="0 0 23 18" fill="none" xmlns="http://www.w3.org/2000/svg">
<path d="M22.6163 10.1002C22.5375 10.1593 22.4478 10.2023 22.3524 10.2267C22.257 10.2511 22.1577 10.2566 22.0602 10.2426C21.9627 10.2287 21.8689 10.1957 21.7842 10.1455C21.6994 10.0953 21.6254 10.029 21.5663 9.95017C21.1143 9.34254 20.5258 8.84953 19.8485 8.51084C19.1711 8.17215 18.4236 7.99723 17.6663 8.00017C17.5188 8.00015 17.3746 7.95666 17.2517 7.87512C17.1288 7.79358 17.0327 7.67761 16.9754 7.54173C16.9364 7.44946 16.9164 7.35032 16.9164 7.25017C16.9164 7.15002 16.9364 7.05088 16.9754 6.9586C17.0327 6.82272 17.1288 6.70676 17.2517 6.62522C17.3746 6.54368 17.5188 6.50018 17.6663 6.50017C18.0871 6.50013 18.4995 6.38208 18.8566 6.15942C19.2137 5.93677 19.5012 5.61844 19.6864 5.24058C19.8716 4.86273 19.9472 4.4405 19.9045 4.02185C19.8618 3.6032 19.7025 3.20493 19.4448 2.87225C19.1871 2.53958 18.8413 2.28584 18.4466 2.13987C18.0519 1.9939 17.6242 1.96154 17.212 2.04646C16.7999 2.13139 16.4198 2.3302 16.1149 2.62031C15.8101 2.91043 15.5928 3.28021 15.4875 3.68767C15.4629 3.78308 15.4198 3.87271 15.3605 3.95144C15.3012 4.03017 15.227 4.09645 15.1422 4.14651C15.0573 4.19656 14.9634 4.22941 14.8658 4.24318C14.7682 4.25694 14.6689 4.25135 14.5735 4.22673C14.4781 4.20211 14.3884 4.15893 14.3097 4.09967C14.231 4.04041 14.1647 3.96622 14.1146 3.88134C14.0646 3.79646 14.0317 3.70256 14.018 3.60498C14.0042 3.50741 14.0098 3.40808 14.0344 3.31267C14.1804 2.74765 14.4563 2.22451 14.8401 1.78487C15.2239 1.34523 15.705 1.00124 16.2451 0.780246C16.7852 0.559256 17.3695 0.467375 17.9513 0.511915C18.5332 0.556454 19.0967 0.736184 19.5969 1.0368C20.0971 1.33742 20.5202 1.75063 20.8326 2.24356C21.145 2.73648 21.338 3.29552 21.3964 3.87618C21.4547 4.45684 21.3767 5.0431 21.1686 5.58831C20.9605 6.13352 20.628 6.62263 20.1975 7.01673C21.2174 7.45829 22.1039 8.15899 22.7691 9.04923C22.8282 9.12822 22.8711 9.2181 22.8954 9.31371C22.9197 9.40932 22.9249 9.50878 22.9107 9.6064C22.8966 9.70403 22.8632 9.79789 22.8127 9.88262C22.7622 9.96735 22.6954 10.0413 22.6163 10.1002ZM17.565 15.8752C17.6193 15.9605 17.6558 16.056 17.6722 16.1558C17.6886 16.2556 17.6846 16.3577 17.6606 16.456C17.6365 16.5542 17.5928 16.6466 17.5321 16.7275C17.4714 16.8084 17.395 16.8762 17.3074 16.9268C17.2199 16.9775 17.123 17.0099 17.0225 17.022C16.9221 17.0342 16.8203 17.026 16.7231 16.9978C16.626 16.9696 16.5356 16.9221 16.4573 16.8581C16.379 16.794 16.3144 16.7148 16.2675 16.6252C15.7951 15.8252 15.1222 15.1622 14.3153 14.7016C13.5084 14.241 12.5954 13.9988 11.6663 13.9988C10.7372 13.9988 9.82417 14.241 9.01728 14.7016C8.21038 15.1622 7.53751 15.8252 7.06505 16.6252C7.01816 16.7148 6.95363 16.794 6.87534 16.8581C6.79704 16.9221 6.7066 16.9696 6.60945 16.9978C6.51231 17.026 6.41046 17.0342 6.31005 17.022C6.20964 17.0099 6.11273 16.9775 6.02515 16.9268C5.93758 16.8762 5.86115 16.8084 5.80046 16.7275C5.73978 16.6466 5.69609 16.5542 5.67202 16.456C5.64796 16.3577 5.64401 16.2556 5.66043 16.1558C5.67685 16.056 5.71328 15.9605 5.76755 15.8752C6.49467 14.6258 7.60336 13.6427 8.93067 13.0702C8.18379 12.4983 7.63489 11.7068 7.36111 10.8069C7.08734 9.90695 7.10246 8.94385 7.40434 8.05295C7.70623 7.16206 8.27972 6.38816 9.04418 5.84005C9.80864 5.29194 10.7256 4.99716 11.6663 4.99716C12.607 4.99716 13.524 5.29194 14.2884 5.84005C15.0529 6.38816 15.6264 7.16206 15.9283 8.05295C16.2301 8.94385 16.2453 9.90695 15.9715 10.8069C15.6977 11.7068 15.1488 12.4983 14.4019 13.0702C15.7292 13.6427 16.8379 14.6258 17.565 15.8752ZM11.6663 12.5002C12.2596 12.5002 12.8397 12.3242 13.333 11.9946C13.8264 11.6649 14.2109 11.1964 14.4379 10.6482C14.665 10.1 14.7244 9.49684 14.6087 8.9149C14.4929 8.33295 14.2072 7.7984 13.7876 7.37885C13.3681 6.95929 12.8335 6.67357 12.2516 6.55781C11.6696 6.44206 11.0664 6.50147 10.5182 6.72853C9.97007 6.95559 9.50154 7.34011 9.17189 7.83346C8.84225 8.3268 8.6663 8.90682 8.6663 9.50017C8.6663 10.2958 8.98237 11.0589 9.54498 11.6215C10.1076 12.1841 10.8707 12.5002 11.6663 12.5002ZM6.4163 7.25017C6.4163 7.05125 6.33728 6.86049 6.19663 6.71984C6.05598 6.57919 5.86521 6.50017 5.6663 6.50017C5.24548 6.50013 4.83311 6.38208 4.47602 6.15942C4.11893 5.93677 3.83144 5.61844 3.6462 5.24058C3.46097 4.86273 3.38541 4.4405 3.42811 4.02185C3.47081 3.6032 3.63006 3.20493 3.88778 2.87225C4.14549 2.53958 4.49133 2.28584 4.88602 2.13987C5.28071 1.9939 5.70842 1.96154 6.12058 2.04646C6.53274 2.13139 6.91282 2.3302 7.21765 2.62031C7.52248 2.91043 7.73985 3.28021 7.84505 3.68767C7.89478 3.88036 8.01902 4.04541 8.19044 4.14651C8.36186 4.2476 8.56642 4.27646 8.75911 4.22673C8.95181 4.177 9.11686 4.05276 9.21795 3.88134C9.31905 3.70992 9.3479 3.50536 9.29817 3.31267C9.15215 2.74765 8.87628 2.22451 8.4925 1.78487C8.10872 1.34523 7.62763 1.00124 7.08751 0.780246C6.54738 0.559256 5.96314 0.467375 5.38126 0.511915C4.79938 0.556454 4.23593 0.736184 3.73573 1.0368C3.23554 1.33742 2.8124 1.75063 2.50001 2.24356C2.18761 2.73648 1.99457 3.29552 1.93624 3.87618C1.87791 4.45684 1.95591 5.0431 2.16403 5.58831C2.37215 6.13352 2.70464 6.62263 3.13505 7.01673C2.11625 7.45871 1.23072 8.15938 0.5663 9.04923C0.446828 9.20836 0.395464 9.40843 0.423506 9.60543C0.451549 9.80243 0.556701 9.98023 0.715831 10.0997C0.874961 10.2192 1.07503 10.2705 1.27203 10.2425C1.46904 10.2144 1.64683 10.1093 1.7663 9.95017C2.21835 9.34254 2.80675 8.84953 3.48414 8.51084C4.16152 8.17215 4.90897 7.99723 5.6663 8.00017C5.86521 8.00017 6.05598 7.92115 6.19663 7.7805C6.33728 7.63984 6.4163 7.44908 6.4163 7.25017Z" fill="black"/>
</svg>
