<svg width="24" height="24" viewBox="0 0 24 24" fill="none" xmlns="http://www.w3.org/2000/svg">
<path opacity="0.2" d="M22.4798 8.12035L19.0111 18.7497C19.0111 18.7497 16.5004 17.2497 12.0004 17.2497C7.50043 17.2497 4.98981 18.7497 4.98981 18.7497L1.52106 8.12129C1.49609 8.04901 1.49326 7.97092 1.51292 7.89702C1.53257 7.82311 1.57383 7.75675 1.63141 7.70642C1.68898 7.65609 1.76026 7.62408 1.83613 7.61448C1.912 7.60489 1.98901 7.61814 2.05731 7.65254L7.06449 10.1482C7.15128 10.1915 7.25123 10.2006 7.34438 10.1734C7.43753 10.1463 7.51703 10.0851 7.56699 10.0019L11.6704 3.18723C11.7049 3.1312 11.7532 3.08494 11.8106 3.05285C11.8681 3.02075 11.9328 3.00391 11.9986 3.00391C12.0644 3.00391 12.129 3.02075 12.1865 3.05285C12.2439 3.08494 12.2922 3.1312 12.3267 3.18723L16.4301 10.0066C16.4802 10.0894 16.5595 10.1503 16.6524 10.1774C16.7453 10.2045 16.845 10.1957 16.9317 10.1529L21.9407 7.65535C22.0088 7.62061 22.0856 7.60694 22.1615 7.61607C22.2373 7.62521 22.3087 7.65674 22.3666 7.70664C22.4244 7.75654 22.4661 7.82255 22.4863 7.89624C22.5064 7.96992 22.5042 8.04795 22.4798 8.12035Z" fill="black"/>
<path d="M22.8598 7.14242C22.6906 6.9949 22.4813 6.90099 22.2587 6.87261C22.036 6.84424 21.8099 6.88267 21.6091 6.98304L16.9019 9.32679L12.9719 2.79898C12.8709 2.63147 12.7283 2.49291 12.558 2.39673C12.3877 2.30054 12.1954 2.25 11.9998 2.25C11.8041 2.25 11.6118 2.30054 11.4415 2.39673C11.2712 2.49291 11.1286 2.63147 11.0276 2.79898L7.09756 9.3296L2.39225 6.98585C2.19195 6.88638 1.96672 6.84827 1.74484 6.87633C1.52296 6.90439 1.31431 6.99735 1.14507 7.14356C0.975832 7.28976 0.853545 7.4827 0.793556 7.69815C0.733568 7.9136 0.73855 8.14197 0.807877 8.3546L4.27663 18.9821C4.3115 19.0889 4.36991 19.1864 4.44755 19.2676C4.52518 19.3488 4.62005 19.4115 4.72516 19.4511C4.83027 19.4907 4.94292 19.5061 5.05482 19.4964C5.16671 19.4866 5.27498 19.4518 5.37163 19.3946C5.39506 19.3805 7.79225 17.9996 11.9998 17.9996C16.2073 17.9996 18.6044 19.3805 18.626 19.3937C18.7227 19.4514 18.8311 19.4867 18.9433 19.4968C19.0555 19.5069 19.1685 19.4916 19.274 19.4521C19.3794 19.4126 19.4746 19.3498 19.5525 19.2684C19.6304 19.1871 19.6889 19.0892 19.7238 18.9821L23.1926 8.35742C23.2639 8.14473 23.2703 7.91563 23.2111 7.69927C23.1518 7.48291 23.0295 7.28907 22.8598 7.14242ZM18.5623 17.7024C17.4373 17.2252 15.1948 16.4996 11.9998 16.4996C8.80475 16.4996 6.56225 17.2252 5.43725 17.7024L2.50381 8.71835L6.72913 10.8249C6.98488 10.951 7.2786 10.9768 7.55242 10.8972C7.82623 10.8175 8.0603 10.6382 8.2085 10.3946L11.9998 4.09273L15.791 10.3927C15.9393 10.636 16.1732 10.815 16.4468 10.8946C16.7203 10.9742 17.0137 10.9487 17.2694 10.823L21.4957 8.71835L18.5623 17.7024ZM16.4876 14.7024C16.457 14.8759 16.3662 15.0331 16.2313 15.1464C16.0964 15.2597 15.9259 15.3219 15.7498 15.3221C15.7058 15.322 15.6619 15.3183 15.6185 15.3109C13.2229 14.8996 10.7747 14.8996 8.37913 15.3109C8.1832 15.3454 7.98157 15.3007 7.81858 15.1866C7.6556 15.0725 7.54463 14.8983 7.51007 14.7024C7.4755 14.5065 7.52019 14.3049 7.63429 14.1419C7.7484 13.9789 7.92257 13.8679 8.1185 13.8334C10.6866 13.3921 13.3111 13.3921 15.8791 13.8334C16.0747 13.8677 16.2486 13.9782 16.3629 14.1405C16.4771 14.3029 16.5223 14.504 16.4885 14.6996L16.4876 14.7024Z" fill="black"/>
</svg>
