<svg width="14" height="11" viewBox="0 0 14 11" fill="none" xmlns="http://www.w3.org/2000/svg">
<path d="M13.3357 3.66641C13.237 3.58036 13.1149 3.52558 12.985 3.50902C12.8551 3.49247 12.7233 3.51489 12.6061 3.57344L9.86028 4.94063L7.56778 1.13274C7.50885 1.03503 7.42567 0.954198 7.32631 0.89809C7.22695 0.841983 7.11478 0.8125 7.00067 0.8125C6.88656 0.8125 6.77439 0.841983 6.67503 0.89809C6.57567 0.954198 6.49249 1.03503 6.43356 1.13274L4.14106 4.94227L1.39629 3.57508C1.27945 3.51705 1.14807 3.49483 1.01864 3.51119C0.889208 3.52756 0.767494 3.58179 0.668772 3.66708C0.570049 3.75236 0.498715 3.86491 0.463722 3.99059C0.428728 4.11627 0.431634 4.24948 0.472075 4.37352L2.49551 10.5729C2.51586 10.6352 2.54993 10.6921 2.59522 10.7394C2.6405 10.7868 2.69584 10.8234 2.75716 10.8465C2.81847 10.8696 2.88419 10.8786 2.94946 10.8729C3.01473 10.8672 3.07788 10.8469 3.13426 10.8135C3.14793 10.8053 4.54629 9.99977 7.00067 9.99977C9.45504 9.99977 10.8534 10.8053 10.866 10.813C10.9224 10.8467 10.9856 10.8672 11.0511 10.8731C11.1165 10.879 11.1824 10.8701 11.244 10.8471C11.3055 10.824 11.361 10.7874 11.4064 10.7399C11.4519 10.6925 11.486 10.6354 11.5064 10.5729L13.5298 4.37516C13.5714 4.25109 13.5752 4.11745 13.5406 3.99124C13.506 3.86503 13.4347 3.75196 13.3357 3.66641ZM10.8288 9.82641C10.1725 9.54805 8.86442 9.12477 7.00067 9.12477C5.13692 9.12477 3.82879 9.54805 3.17254 9.82641L1.46137 4.58571L3.92614 5.81454C4.07533 5.88811 4.24666 5.90315 4.40639 5.85669C4.56612 5.81023 4.70265 5.70564 4.78911 5.56352L7.00067 1.88743L9.21223 5.56243C9.29867 5.70441 9.43511 5.8089 9.59471 5.85535C9.75431 5.90181 9.92552 5.88686 10.0747 5.81344L12.54 4.58571L10.8288 9.82641Z" fill="black"/>
</svg>
