<svg width="14" height="9" viewBox="0 0 14 9" fill="none" xmlns="http://www.w3.org/2000/svg">
<path d="M13.5248 4.32281C13.5056 4.27961 13.0424 3.25203 12.0127 2.22227C10.6405 0.850156 8.9075 0.125 7 0.125C5.0925 0.125 3.35945 0.850156 1.98734 2.22227C0.957573 3.25203 0.492182 4.28125 0.475229 4.32281C0.450354 4.37876 0.4375 4.43931 0.4375 4.50055C0.4375 4.56178 0.450354 4.62233 0.475229 4.67828C0.49437 4.72148 0.957573 5.74852 1.98734 6.77828C3.35945 8.14984 5.0925 8.875 7 8.875C8.9075 8.875 10.6405 8.14984 12.0127 6.77828C13.0424 5.74852 13.5056 4.72148 13.5248 4.67828C13.5496 4.62233 13.5625 4.56178 13.5625 4.50055C13.5625 4.43931 13.5496 4.37876 13.5248 4.32281ZM7 8C5.31671 8 3.84617 7.38805 2.62882 6.18164C2.12933 5.68491 1.70438 5.11849 1.36718 4.5C1.70429 3.88145 2.12925 3.31502 2.62882 2.81836C3.84617 1.61195 5.31671 1 7 1C8.68328 1 10.1538 1.61195 11.3712 2.81836C11.8716 3.3149 12.2975 3.88133 12.6355 4.5C12.2412 5.23609 10.5235 8 7 8ZM7 1.875C6.48082 1.875 5.9733 2.02895 5.54162 2.31739C5.10994 2.60583 4.77349 3.0158 4.57481 3.49546C4.37613 3.97511 4.32415 4.50291 4.42543 5.01211C4.52672 5.52131 4.77673 5.98904 5.14384 6.35616C5.51095 6.72327 5.97868 6.97328 6.48788 7.07456C6.99708 7.17585 7.52488 7.12386 8.00454 6.92518C8.4842 6.7265 8.89416 6.39005 9.1826 5.95837C9.47104 5.52669 9.625 5.01918 9.625 4.5C9.62427 3.80403 9.34748 3.13677 8.85535 2.64464C8.36323 2.15252 7.69597 1.87572 7 1.875ZM7 6.25C6.65388 6.25 6.31553 6.14736 6.02775 5.95507C5.73996 5.76278 5.51566 5.48947 5.38321 5.1697C5.25075 4.84993 5.2161 4.49806 5.28362 4.15859C5.35115 3.81913 5.51782 3.5073 5.76256 3.26256C6.0073 3.01782 6.31912 2.85115 6.65859 2.78363C6.99805 2.7161 7.34992 2.75076 7.66969 2.88321C7.98946 3.01566 8.26277 3.23997 8.45507 3.52775C8.64736 3.81554 8.75 4.15388 8.75 4.5C8.75 4.96413 8.56562 5.40925 8.23743 5.73744C7.90924 6.06563 7.46412 6.25 7 6.25Z" fill="black"/>
</svg>
