<svg width="32" height="32" viewBox="0 0 32 32" fill="none" xmlns="http://www.w3.org/2000/svg">
<circle cx="16" cy="16" r="16" fill="#DBEAFE"/>
<g clip-path="url(#clip0_186_5498)">
<path opacity="0.2" d="M27.25 22.3103V22.75C27.25 22.9489 27.171 23.1397 27.0303 23.2803C26.8897 23.421 26.6989 23.5 26.5 23.5H18.13C17.9814 23.5007 17.8359 23.4572 17.7121 23.3751C17.5882 23.293 17.4916 23.1759 17.4344 23.0387C15.7666 18.9325 11.7231 16 7 16C7 13.0938 8.18031 10.4894 10 8.5L20.5 19L25.4884 20.125C25.9869 20.2344 26.4331 20.5106 26.7534 20.908C27.0737 21.3053 27.2489 21.8 27.25 22.3103Z" fill="#1E3A8A"/>
<path d="M25.6563 19.393L20.875 18.3167L10.5306 7.96956C10.459 7.89794 10.3736 7.84158 10.2795 7.80388C10.1855 7.76618 10.0848 7.74791 9.98354 7.75019C9.88226 7.75247 9.7825 7.77524 9.69026 7.81713C9.59802 7.85902 9.51523 7.91917 9.44688 7.99393C7.38531 10.2477 6.25 13.0939 6.25 16.0002V22.7502C6.25 23.148 6.40804 23.5295 6.68934 23.8108C6.97064 24.0921 7.35218 24.2502 7.75 24.2502H10.75C11.1478 24.2502 11.5294 24.0921 11.8107 23.8108C12.092 23.5295 12.25 23.148 12.25 22.7502V18.1621C12.4834 18.298 12.7131 18.4433 12.9381 18.5971C14.6406 19.7655 15.9625 21.4081 16.7397 23.3211C16.852 23.5972 17.0445 23.8333 17.2923 23.999C17.5401 24.1646 17.8319 24.2521 18.13 24.2502H26.5C26.8978 24.2502 27.2794 24.0921 27.5607 23.8108C27.842 23.5295 28 23.148 28 22.7502V22.3067C28.0017 21.6262 27.77 20.9657 27.3434 20.4354C26.9169 19.9051 26.3213 19.5372 25.6563 19.393ZM10.75 22.7502H7.75V16.7774C8.77755 16.85 9.7886 17.075 10.75 17.4449V22.7502ZM26.5 22.7502H18.1263C17.2386 20.5688 15.7304 18.6958 13.7884 17.3633C12.0113 16.1348 9.93325 15.4134 7.77719 15.2764C7.9463 13.2013 8.73583 11.225 10.0431 9.60456L19.9694 19.5308C20.0698 19.6309 20.1966 19.7005 20.335 19.7314L25.3263 20.8564C25.6591 20.9272 25.9574 21.1104 26.1711 21.3752C26.3849 21.64 26.501 21.9702 26.5 22.3105V22.7502Z" fill="#1E3A8A"/>
</g>
<defs>
<clipPath id="clip0_186_5498">
<rect width="24" height="24" fill="white" transform="translate(4 4)"/>
</clipPath>
</defs>
</svg>
