<svg width="32" height="32" viewBox="0 0 32 32" fill="none" xmlns="http://www.w3.org/2000/svg">
<circle cx="16" cy="16" r="16" fill="#FFE4E6"/>
<path opacity="0.2" d="M25 15.9222C25.006 16.6216 24.9308 17.3194 24.7759 18.0015C24.6623 18.4983 24.3834 18.9419 23.9849 19.2595C23.5864 19.5771 23.0918 19.75 22.5822 19.75H18.25C17.6533 19.75 17.081 19.987 16.659 20.409C16.2371 20.8309 16 21.4032 16 22C15.9997 22.3598 15.9132 22.7143 15.7476 23.0337C15.582 23.3532 15.3422 23.6283 15.0484 23.8359C14.7545 24.0436 14.4151 24.1777 14.0587 24.2271C13.7023 24.2764 13.3392 24.2396 13 24.1197C9.50594 22.885 7 19.9197 7 16C6.99987 13.6292 7.9352 11.3541 9.60281 9.66892C11.2704 7.98377 13.5356 7.02466 15.9063 6.99997C20.86 6.95028 24.9578 10.9703 25 15.9222Z" fill="#881337"/>
<path d="M22.8222 9.05219C21.0069 7.25462 18.5547 6.24739 16 6.25001H15.8997C13.3312 6.27643 10.877 7.31532 9.07015 9.14094C7.26331 10.9666 6.24986 13.4314 6.25 16C6.25 20.0313 8.74187 23.4119 12.7525 24.8284C13.2049 24.9879 13.6889 25.0366 14.1639 24.9704C14.639 24.9043 15.0912 24.7252 15.4828 24.4481C15.8743 24.1711 16.1937 23.8042 16.4142 23.3782C16.6347 22.9523 16.7499 22.4797 16.75 22C16.75 21.6022 16.908 21.2207 17.1893 20.9393C17.4706 20.658 17.8522 20.5 18.25 20.5H22.5822C23.2627 20.5033 23.9239 20.2737 24.4559 19.8495C24.988 19.4252 25.3589 18.8317 25.5072 18.1675C25.6748 17.4294 25.7563 16.6744 25.75 15.9175C25.7404 14.6364 25.4767 13.3699 24.9742 12.1914C24.4716 11.0129 23.7401 9.94592 22.8222 9.05219ZM24.0409 17.8375C23.9664 18.1684 23.7813 18.464 23.516 18.6753C23.2508 18.8867 22.9214 19.0012 22.5822 19H18.25C17.4543 19 16.6913 19.3161 16.1287 19.8787C15.5661 20.4413 15.25 21.2044 15.25 22C15.2497 22.2396 15.1919 22.4756 15.0816 22.6883C14.9713 22.901 14.8117 23.0842 14.6161 23.2225C14.4205 23.3609 14.1946 23.4503 13.9573 23.4834C13.72 23.5166 13.4782 23.4923 13.2522 23.4128C9.85844 22.2156 7.75 19.375 7.75 16C7.74988 13.8267 8.60736 11.7411 10.1361 10.1963C11.6649 8.65158 13.7415 7.77248 15.9147 7.75001H15.9991C18.1724 7.75845 20.2553 8.62073 21.7986 10.1509C23.3419 11.6811 24.222 13.7565 24.2491 15.9297C24.2546 16.5714 24.1861 17.2116 24.0447 17.8375H24.0409ZM17.125 11.125C17.125 11.3475 17.059 11.565 16.9354 11.75C16.8118 11.935 16.6361 12.0792 16.4305 12.1644C16.225 12.2495 15.9988 12.2718 15.7805 12.2284C15.5623 12.185 15.3618 12.0778 15.2045 11.9205C15.0472 11.7632 14.94 11.5627 14.8966 11.3445C14.8532 11.1263 14.8755 10.9001 14.9606 10.6945C15.0458 10.4889 15.19 10.3132 15.375 10.1896C15.56 10.066 15.7775 10 16 10C16.2984 10 16.5845 10.1185 16.7955 10.3295C17.0065 10.5405 17.125 10.8266 17.125 11.125ZM13 13.375C13 13.5975 12.934 13.815 12.8104 14C12.6868 14.185 12.5111 14.3292 12.3055 14.4144C12.1 14.4995 11.8738 14.5218 11.6555 14.4784C11.4373 14.435 11.2368 14.3278 11.0795 14.1705C10.9222 14.0132 10.815 13.8127 10.7716 13.5945C10.7282 13.3763 10.7505 13.1501 10.8356 12.9445C10.9208 12.7389 11.065 12.5632 11.25 12.4396C11.435 12.316 11.6525 12.25 11.875 12.25C12.1734 12.25 12.4595 12.3685 12.6705 12.5795C12.8815 12.7905 13 13.0766 13 13.375ZM13 18.625C13 18.8475 12.934 19.065 12.8104 19.25C12.6868 19.435 12.5111 19.5792 12.3055 19.6644C12.1 19.7495 11.8738 19.7718 11.6555 19.7284C11.4373 19.685 11.2368 19.5778 11.0795 19.4205C10.9222 19.2632 10.815 19.0627 10.7716 18.8445C10.7282 18.6263 10.7505 18.4001 10.8356 18.1945C10.9208 17.9889 11.065 17.8132 11.25 17.6896C11.435 17.566 11.6525 17.5 11.875 17.5C12.1734 17.5 12.4595 17.6185 12.6705 17.8295C12.8815 18.0405 13 18.3266 13 18.625ZM21.25 13.375C21.25 13.5975 21.184 13.815 21.0604 14C20.9368 14.185 20.7611 14.3292 20.5555 14.4144C20.3499 14.4995 20.1238 14.5218 19.9055 14.4784C19.6873 14.435 19.4868 14.3278 19.3295 14.1705C19.1722 14.0132 19.065 13.8127 19.0216 13.5945C18.9782 13.3763 19.0005 13.1501 19.0856 12.9445C19.1708 12.7389 19.315 12.5632 19.5 12.4396C19.685 12.316 19.9025 12.25 20.125 12.25C20.4234 12.25 20.7095 12.3685 20.9205 12.5795C21.1315 12.7905 21.25 13.0766 21.25 13.375Z" fill="#881337"/>
</svg>
