<svg width="41" height="40" viewBox="0 0 41 40" fill="none" xmlns="http://www.w3.org/2000/svg">
<path d="M18.5087 0.654476L14.459 4.18073H20.2667V1.39845e-05C19.64 -0.00201221 19.0125 0.216142 18.5087 0.654476Z" fill="#FDF0BC"/>
<path d="M22.0027 0.650409C21.5042 0.218829 20.8862 0.0020262 20.2676 0V4.18072H26.0753L22.0027 0.650409Z" fill="url(#paint0_linear_302_2462)"/>
<path d="M6.14016 6.43578L5.30469 11.7404L9.75354 8.00743L7.06613 4.80469C6.58457 5.20587 6.24417 5.77659 6.14016 6.43578Z" fill="#FDF0BC"/>
<path d="M8.81562 4.18786C8.15643 4.17706 7.54316 4.40872 7.06836 4.80518L9.75577 8.00792L14.2046 4.27499L8.81562 4.18786Z" fill="url(#paint1_linear_302_2462)"/>
<path d="M0.381533 18.8159L3.15067 23.4167L4.15904 17.6974L0.0424828 16.9707C-0.068958 17.588 0.0370796 18.2438 0.381533 18.8159Z" fill="#FDF0BC"/>
<path d="M0.982522 15.3748C0.471245 15.7908 0.15043 16.3622 0.0410156 16.9708L4.15825 17.6968L5.16662 11.9775L0.982522 15.3748Z" fill="url(#paint2_linear_302_2462)"/>
<path d="M3.92778 32.0007L9.00678 33.7445L6.10324 28.7148L2.48242 30.8052C2.79378 31.3496 3.29628 31.7839 3.92778 32.0007Z" fill="url(#paint3_linear_302_2462)"/>
<path d="M2.1794 28.9783C2.05445 29.6253 2.17602 30.2696 2.48333 30.8066L6.10414 28.7162L3.2006 23.6865L2.1794 28.9783Z" fill="url(#paint4_linear_302_2462)"/>
<path d="M15.1178 39.8218L20.1292 37.8936L14.672 35.9072L13.2422 39.836C13.8305 40.0521 14.4951 40.0616 15.1178 39.8218Z" fill="url(#paint5_linear_302_2462)"/>
<path d="M11.834 38.6311C12.1542 39.2072 12.6614 39.6226 13.2422 39.836L14.6721 35.9072L9.21484 33.9209L11.834 38.6311Z" fill="url(#paint6_linear_302_2462)"/>
<path d="M28.7189 38.6196L31.3186 33.9209L25.8613 35.9072L27.2911 39.836C27.8801 39.6233 28.3954 39.2039 28.7189 38.6196Z" fill="url(#paint7_linear_302_2462)"/>
<path d="M25.438 39.8185C26.054 40.0542 26.7091 40.0461 27.2913 39.836L25.8615 35.9072L20.4043 37.8936L25.438 39.8185Z" fill="url(#paint8_linear_302_2462)"/>
<path d="M38.3658 28.9567L37.3371 23.6865L34.4336 28.7162L38.0544 30.8066C38.3691 30.2642 38.4941 29.6118 38.3658 28.9567Z" fill="url(#paint9_linear_302_2462)"/>
<path d="M36.6225 31.9831C37.2452 31.7676 37.7423 31.3401 38.0536 30.8052L34.4328 28.7148L31.5293 33.7445L36.6225 31.9831Z" fill="url(#paint10_linear_302_2462)"/>
<path d="M39.5412 15.3532L35.3652 11.9775L36.3736 17.6968L40.4908 16.9708C40.3848 16.3534 40.0606 15.7733 39.5412 15.3532Z" fill="url(#paint11_linear_302_2462)"/>
<path d="M40.1532 18.7929C40.4922 18.2276 40.5983 17.5806 40.4922 16.9707L36.375 17.6968L37.3834 23.416L40.1532 18.7929Z" fill="url(#paint12_linear_302_2462)"/>
<path d="M31.7008 4.17623L26.332 4.27416L30.7809 8.00709L33.4683 4.80435C32.9894 4.40046 32.3687 4.16407 31.7008 4.17623Z" fill="url(#paint13_linear_302_2462)"/>
<path d="M34.3817 6.41919C34.2777 5.76811 33.9434 5.20482 33.4706 4.80566L30.7832 8.00841L35.2321 11.7413L34.3817 6.41919Z" fill="url(#paint14_linear_302_2462)"/>
<path d="M20.2693 34.7203C28.1026 34.7203 34.4527 28.3702 34.4527 20.5369C34.4527 12.7036 28.1026 6.35352 20.2693 6.35352C12.4361 6.35352 6.08594 12.7036 6.08594 20.5369C6.08594 28.3702 12.4361 34.7203 20.2693 34.7203Z" fill="url(#paint15_radial_302_2462)"/>
<path d="M20.2688 5.08691C11.7358 5.08691 4.81836 12.0037 4.81836 20.5367C4.81836 29.0697 11.7358 35.9871 20.2688 35.9871C28.8018 35.9871 35.7192 29.0697 35.7192 20.5367C35.7192 12.0037 28.8018 5.08691 20.2688 5.08691ZM20.2688 34.7187C12.4362 34.7187 6.08676 28.3693 6.08676 20.5367C6.08676 12.7041 12.4362 6.35464 20.2688 6.35464C28.1014 6.35464 34.4508 12.7041 34.4508 20.5367C34.4508 28.3693 28.1014 34.7187 20.2688 34.7187Z" fill="url(#paint16_linear_302_2462)"/>
<path d="M20.2689 3.11523C10.6472 3.11523 2.84766 10.9147 2.84766 20.5365C2.84766 30.1582 10.6472 37.9577 20.2689 37.9577C29.8906 37.9577 37.6901 30.1582 37.6901 20.5365C37.6901 10.9147 29.8906 3.11523 20.2689 3.11523ZM20.2689 35.9795C11.74 35.9795 4.8259 29.0654 4.8259 20.5365C4.8259 12.0075 11.74 5.09415 20.2689 5.09415C28.7978 5.09415 35.7119 12.0082 35.7119 20.5372C35.7119 29.0661 28.7978 35.9795 20.2689 35.9795Z" fill="url(#paint17_linear_302_2462)"/>
<defs>
<linearGradient id="paint0_linear_302_2462" x1="20.5515" y1="2.09036" x2="25.8847" y2="2.09036" gradientUnits="userSpaceOnUse">
<stop stop-color="#FEE998"/>
<stop offset="1" stop-color="#FCC15B"/>
</linearGradient>
<linearGradient id="paint1_linear_302_2462" x1="8.69225" y1="6.16999" x2="14.0148" y2="1.70346" gradientUnits="userSpaceOnUse">
<stop stop-color="#FEE998"/>
<stop offset="1" stop-color="#FCC15B"/>
</linearGradient>
<linearGradient id="paint2_linear_302_2462" x1="5.26188" y1="11.9656" x2="2.25834" y2="16.9" gradientUnits="userSpaceOnUse">
<stop stop-color="#FCC15B"/>
<stop offset="1" stop-color="#FEE998"/>
</linearGradient>
<linearGradient id="paint3_linear_302_2462" x1="3.85178" y1="29.643" x2="9.07222" y2="33.0756" gradientUnits="userSpaceOnUse">
<stop stop-color="#FFC05F"/>
<stop offset="1" stop-color="#ED892B"/>
</linearGradient>
<linearGradient id="paint4_linear_302_2462" x1="3.26014" y1="23.796" x2="4.1898" y2="29.66" gradientUnits="userSpaceOnUse">
<stop stop-color="#FCC15B"/>
<stop offset="1" stop-color="#FEE998"/>
</linearGradient>
<linearGradient id="paint5_linear_302_2462" x1="14.2185" y1="37.9416" x2="19.3674" y2="39.0858" gradientUnits="userSpaceOnUse">
<stop stop-color="#FEAC3E"/>
<stop offset="1" stop-color="#F08223"/>
</linearGradient>
<linearGradient id="paint6_linear_302_2462" x1="8.95733" y1="33.8761" x2="13.6772" y2="37.7378" gradientUnits="userSpaceOnUse">
<stop stop-color="#FFA135"/>
<stop offset="1" stop-color="#FEB431"/>
</linearGradient>
<linearGradient id="paint7_linear_302_2462" x1="31.339" y1="33.8873" x2="26.6311" y2="37.9397" gradientUnits="userSpaceOnUse">
<stop stop-color="#FFAA3D"/>
<stop offset="1" stop-color="#ED8B1C"/>
</linearGradient>
<linearGradient id="paint8_linear_302_2462" x1="20.425" y1="38.2697" x2="26.432" y2="37.936" gradientUnits="userSpaceOnUse">
<stop stop-color="#FF962D"/>
<stop offset="1" stop-color="#E56005"/>
</linearGradient>
<linearGradient id="paint9_linear_302_2462" x1="37.5579" y1="23.7077" x2="36.3501" y2="29.5876" gradientUnits="userSpaceOnUse">
<stop stop-color="#FDBD41"/>
<stop offset="1" stop-color="#FEB334"/>
</linearGradient>
<linearGradient id="paint10_linear_302_2462" x1="39.1403" y1="24.7421" x2="33.3326" y2="34.8011" gradientUnits="userSpaceOnUse">
<stop stop-color="#F6942F"/>
<stop offset="1" stop-color="#EA6F11"/>
</linearGradient>
<linearGradient id="paint11_linear_302_2462" x1="35.0737" y1="12.1467" x2="38.5699" y2="17.3274" gradientUnits="userSpaceOnUse">
<stop stop-color="#FDBD41"/>
<stop offset="1" stop-color="#FEB334"/>
</linearGradient>
<linearGradient id="paint12_linear_302_2462" x1="37.1657" y1="23.4014" x2="38.5324" y2="17.3625" gradientUnits="userSpaceOnUse">
<stop stop-color="#FD9D24"/>
<stop offset="1" stop-color="#FF9515"/>
</linearGradient>
<linearGradient id="paint13_linear_302_2462" x1="32.0572" y1="6.32698" x2="26.654" y2="3.72074" gradientUnits="userSpaceOnUse">
<stop stop-color="#FCC15B"/>
<stop offset="1" stop-color="#FEE998"/>
</linearGradient>
<linearGradient id="paint14_linear_302_2462" x1="32.0856" y1="5.99601" x2="34.66" y2="11.717" gradientUnits="userSpaceOnUse">
<stop stop-color="#FF9515"/>
<stop offset="1" stop-color="#FFBE41"/>
</linearGradient>
<radialGradient id="paint15_radial_302_2462" cx="0" cy="0" r="1" gradientUnits="userSpaceOnUse" gradientTransform="translate(20.2694 20.5366) scale(14.1834)">
<stop offset="0.8428" stop-color="#FAAA31"/>
<stop offset="1" stop-color="#F57E16"/>
</radialGradient>
<linearGradient id="paint16_linear_302_2462" x1="20.2689" y1="5.08665" x2="20.2689" y2="35.9875" gradientUnits="userSpaceOnUse">
<stop offset="0.0226" stop-color="#FD9A18"/>
<stop offset="0.3764" stop-color="#FEC752"/>
<stop offset="1" stop-color="#FFA422"/>
</linearGradient>
<linearGradient id="paint17_linear_302_2462" x1="20.269" y1="3.06417" x2="20.269" y2="37.9068" gradientUnits="userSpaceOnUse">
<stop stop-color="#FFDB69"/>
<stop offset="0.1799" stop-color="#FEE7B0"/>
<stop offset="0.24" stop-color="#FEE9BA"/>
<stop offset="0.2592" stop-color="#FDECD0"/>
<stop offset="0.2953" stop-color="#FEDA92"/>
<stop offset="0.3254" stop-color="#FFCD64"/>
<stop offset="0.3405" stop-color="#FFC853"/>
<stop offset="0.7613" stop-color="#FF9114"/>
<stop offset="1" stop-color="#F57E16"/>
</linearGradient>
</defs>
</svg>
