<svg width="14" height="15" viewBox="0 0 14 15" fill="none" xmlns="http://www.w3.org/2000/svg">
<path d="M9.73438 2.25C8.60508 2.25 7.61633 2.73562 7 3.55648C6.38367 2.73562 5.39492 2.25 4.26562 2.25C3.36669 2.25101 2.50486 2.60856 1.86921 3.24421C1.23356 3.87986 0.876013 4.74169 0.875 5.64062C0.875 9.46875 6.55102 12.5673 6.79273 12.6953C6.85644 12.7296 6.92766 12.7475 7 12.7475C7.07234 12.7475 7.14356 12.7296 7.20727 12.6953C7.44898 12.5673 13.125 9.46875 13.125 5.64062C13.124 4.74169 12.7664 3.87986 12.1308 3.24421C11.4951 2.60856 10.6333 2.25101 9.73438 2.25ZM7 11.8094C6.00141 11.2275 1.75 8.5768 1.75 5.64062C1.75087 4.97371 2.01619 4.33435 2.48777 3.86277C2.95935 3.39119 3.59871 3.12587 4.26562 3.125C5.3293 3.125 6.22234 3.69156 6.59531 4.60156C6.62827 4.6818 6.68435 4.75044 6.7564 4.79874C6.82846 4.84704 6.91325 4.87283 7 4.87283C7.08675 4.87283 7.17154 4.84704 7.2436 4.79874C7.31565 4.75044 7.37173 4.6818 7.40469 4.60156C7.77766 3.68992 8.6707 3.125 9.73438 3.125C10.4013 3.12587 11.0406 3.39119 11.5122 3.86277C11.9838 4.33435 12.2491 4.97371 12.25 5.64062C12.25 8.57242 7.9975 11.227 7 11.8094Z" fill="black"/>
</svg>
