<svg width="24" height="24" viewBox="0 0 24 24" fill="none" xmlns="http://www.w3.org/2000/svg">
<circle cx="12" cy="12" r="12" fill="#151515" fill-opacity="0.12"/>
<path d="M18.2075 8.58547L15.4144 5.79297C15.3215 5.70009 15.2113 5.62641 15.0899 5.57614C14.9686 5.52587 14.8385 5.5 14.7072 5.5C14.5759 5.5 14.4458 5.52587 14.3245 5.57614C14.2031 5.62641 14.0929 5.70009 14 5.79297L6.29313 13.4998C6.19987 13.5924 6.12593 13.7025 6.0756 13.8239C6.02528 13.9452 5.99959 14.0754 6.00001 14.2067V16.9999C6.00001 17.2651 6.10536 17.5194 6.2929 17.707C6.48043 17.8945 6.73479 17.9999 7 17.9999H17.5C17.6326 17.9999 17.7598 17.9472 17.8536 17.8534C17.9473 17.7596 18 17.6325 18 17.4999C18 17.3672 17.9473 17.2401 17.8536 17.1463C17.7598 17.0525 17.6326 16.9999 17.5 16.9999H11.2075L18.2075 9.99985C18.3004 9.90699 18.3741 9.79674 18.4243 9.6754C18.4746 9.55406 18.5005 9.424 18.5005 9.29266C18.5005 9.16132 18.4746 9.03127 18.4243 8.90993C18.3741 8.78858 18.3004 8.67834 18.2075 8.58547ZM9.79313 16.9999H7V14.2067L12.5 8.70672L15.2931 11.4998L9.79313 16.9999ZM16 10.793L13.2075 7.99985L14.7075 6.49985L17.5 9.29297L16 10.793Z" fill="black"/>
</svg>
