<svg width="21" height="20" viewBox="0 0 21 20" fill="none" xmlns="http://www.w3.org/2000/svg">
<path d="M18.584 5.75033H15.2952C15.3318 5.71939 15.3693 5.68939 15.4049 5.65658C15.6896 5.40362 15.9191 5.09464 16.079 4.74894C16.2388 4.40325 16.3257 4.02829 16.334 3.64752C16.3463 3.23096 16.2733 2.81629 16.1196 2.42895C15.9659 2.0416 15.7346 1.68977 15.4399 1.39505C15.1453 1.10033 14.7935 0.868935 14.4062 0.715076C14.0189 0.561218 13.6043 0.488141 13.1877 0.500332C12.8068 0.508537 12.4317 0.595287 12.0858 0.755151C11.7399 0.915016 11.4308 1.14455 11.1777 1.42939C10.8276 1.83523 10.5429 2.29325 10.334 2.78689C10.1251 2.29325 9.84041 1.83523 9.49023 1.42939C9.23717 1.14455 8.92803 0.915016 8.58217 0.755151C8.23631 0.595287 7.86117 0.508537 7.48023 0.500332C7.06367 0.488141 6.64902 0.561218 6.26172 0.715076C5.87443 0.868935 5.52266 1.10033 5.22803 1.39505C4.9334 1.68977 4.70211 2.0416 4.54837 2.42895C4.39462 2.81629 4.32167 3.23096 4.33398 3.64752C4.34232 4.02829 4.42913 4.40325 4.58899 4.74894C4.74885 5.09464 4.97832 5.40362 5.26305 5.65658C5.29867 5.68752 5.33617 5.71752 5.37273 5.75033H2.08398C1.68616 5.75033 1.30463 5.90837 1.02332 6.18967C0.74202 6.47098 0.583984 6.85251 0.583984 7.25033V10.2503C0.583984 10.6482 0.74202 11.0297 1.02332 11.311C1.30463 11.5923 1.68616 11.7503 2.08398 11.7503V17.7503C2.08398 18.1482 2.24202 18.5297 2.52332 18.811C2.80463 19.0923 3.18616 19.2503 3.58398 19.2503H17.084C17.4818 19.2503 17.8633 19.0923 18.1446 18.811C18.4259 18.5297 18.584 18.1482 18.584 17.7503V11.7503C18.9818 11.7503 19.3633 11.5923 19.6446 11.311C19.9259 11.0297 20.084 10.6482 20.084 10.2503V7.25033C20.084 6.85251 19.9259 6.47098 19.6446 6.18967C19.3633 5.90837 18.9818 5.75033 18.584 5.75033ZM12.3027 2.42314C12.4215 2.29201 12.5661 2.18684 12.7274 2.11424C12.8887 2.04164 13.0633 2.00318 13.2402 2.00127H13.2862C13.4935 2.00257 13.6985 2.04523 13.8892 2.12677C14.0798 2.20831 14.2523 2.32709 14.3964 2.47613C14.5406 2.62517 14.6535 2.80149 14.7287 2.99474C14.8038 3.188 14.8396 3.39431 14.834 3.60158C14.8321 3.77849 14.7936 3.95309 14.721 4.11442C14.6484 4.27575 14.5432 4.42033 14.4121 4.53908C13.5224 5.32658 12.0459 5.60408 11.1309 5.70158C11.2434 4.70877 11.5527 3.26596 12.3027 2.42314ZM6.2943 2.45689C6.58487 2.16635 6.97839 2.00227 7.3893 2.00033H7.43523C7.61214 2.00224 7.78674 2.0407 7.94807 2.1133C8.1094 2.1859 8.25398 2.29107 8.37273 2.42221C9.1593 3.31096 9.4368 4.78471 9.5343 5.69596C8.62305 5.60221 7.1493 5.32096 6.26055 4.53439C6.12941 4.41564 6.02424 4.27106 5.95164 4.10973C5.87904 3.9484 5.84058 3.7738 5.83867 3.59689C5.83286 3.38618 5.86991 3.17648 5.94759 2.98051C6.02527 2.78455 6.14195 2.6064 6.29055 2.45689H6.2943ZM2.08398 7.25033H9.58398V10.2503H2.08398V7.25033ZM3.58398 11.7503H9.58398V17.7503H3.58398V11.7503ZM17.084 17.7503H11.084V11.7503H17.084V17.7503ZM18.584 10.2503H11.084V7.25033H18.584V10.2503Z" fill="black"/>
</svg>
