<svg width="20" height="18" viewBox="0 0 20 18" fill="none" xmlns="http://www.w3.org/2000/svg">
<path d="M19.75 16.5C19.75 16.6989 19.671 16.8897 19.5303 17.0303C19.3897 17.171 19.1989 17.25 19 17.25H1C0.801088 17.25 0.610322 17.171 0.46967 17.0303C0.329018 16.8897 0.25 16.6989 0.25 16.5C0.25 16.3011 0.329018 16.1103 0.46967 15.9697C0.610322 15.829 0.801088 15.75 1 15.75H19C19.1989 15.75 19.3897 15.829 19.5303 15.9697C19.671 16.1103 19.75 16.3011 19.75 16.5ZM19.75 2.25V12.75C19.75 13.1478 19.592 13.5294 19.3107 13.8107C19.0294 14.092 18.6478 14.25 18.25 14.25H1.75C1.35218 14.25 0.970644 14.092 0.68934 13.8107C0.408035 13.5294 0.25 13.1478 0.25 12.75V2.25C0.25 1.85218 0.408035 1.47064 0.68934 1.18934C0.970644 0.908035 1.35218 0.75 1.75 0.75H18.25C18.6478 0.75 19.0294 0.908035 19.3107 1.18934C19.592 1.47064 19.75 1.85218 19.75 2.25ZM13.375 7.5C13.375 7.37377 13.3431 7.2496 13.2823 7.13898C13.2215 7.02836 13.1337 6.93488 13.0272 6.86719L8.90219 4.24219C8.78881 4.17015 8.65816 4.12989 8.5239 4.12561C8.38964 4.12133 8.25669 4.15319 8.13895 4.21786C8.02121 4.28252 7.923 4.37762 7.85458 4.49322C7.78616 4.60882 7.75004 4.74067 7.75 4.875V10.125C7.75004 10.2593 7.78616 10.3912 7.85458 10.5068C7.923 10.6224 8.02121 10.7175 8.13895 10.7821C8.25669 10.8468 8.38964 10.8787 8.5239 10.8744C8.65816 10.8701 8.78881 10.8298 8.90219 10.7578L13.0272 8.13281C13.1337 8.06512 13.2215 7.97164 13.2823 7.86102C13.3431 7.7504 13.375 7.62623 13.375 7.5Z" fill="black"/>
</svg>
