<svg width="18" height="20" viewBox="0 0 18 20" fill="none" xmlns="http://www.w3.org/2000/svg">
<path d="M10.8966 12.3634C10.7885 12.2962 10.6651 12.2576 10.538 12.2512C10.4109 12.2448 10.2843 12.2708 10.17 12.3269L8.18062 13.3009C8.08505 12.9963 7.89476 12.7301 7.63746 12.5411C7.38016 12.3521 7.06926 12.2501 6.75 12.25H1.5C1.10218 12.25 0.720644 12.408 0.43934 12.6893C0.158035 12.9706 0 13.3522 0 13.75V17.5C0 17.8978 0.158035 18.2794 0.43934 18.5607C0.720644 18.842 1.10218 19 1.5 19H6.75C7.0801 18.9996 7.40086 18.8904 7.66256 18.6892C7.92427 18.488 8.11229 18.2061 8.1975 17.8872L10.1512 18.9184C10.2659 18.9787 10.3942 19.0082 10.5236 19.0041C10.653 19 10.7792 18.9625 10.8898 18.8952C11.0004 18.8279 11.0918 18.7331 11.1549 18.62C11.218 18.507 11.2508 18.3795 11.25 18.25V13C11.25 12.8726 11.2175 12.7473 11.1557 12.636C11.0939 12.5246 11.0047 12.4308 10.8966 12.3634ZM6.75 17.5H1.5V13.75H6.75V16.6562C6.75 16.6684 6.75 16.6797 6.75 16.6919V17.5ZM9.75 17.0087L8.25 16.2194V14.9369L9.75 14.2028V17.0087ZM17.0306 5.71938L11.7806 0.469375C11.7109 0.399749 11.6282 0.344539 11.5371 0.306898C11.4461 0.269257 11.3485 0.249923 11.25 0.25H2.25C1.85218 0.25 1.47064 0.408035 1.18934 0.68934C0.908035 0.970645 0.75 1.35218 0.75 1.75V10C0.75 10.1989 0.829018 10.3897 0.96967 10.5303C1.11032 10.671 1.30109 10.75 1.5 10.75C1.69891 10.75 1.88968 10.671 2.03033 10.5303C2.17098 10.3897 2.25 10.1989 2.25 10V1.75H10.5V6.25C10.5 6.44891 10.579 6.63968 10.7197 6.78033C10.8603 6.92098 11.0511 7 11.25 7H15.75V18.25H13.5C13.3011 18.25 13.1103 18.329 12.9697 18.4697C12.829 18.6103 12.75 18.8011 12.75 19C12.75 19.1989 12.829 19.3897 12.9697 19.5303C13.1103 19.671 13.3011 19.75 13.5 19.75H15.75C16.1478 19.75 16.5294 19.592 16.8107 19.3107C17.092 19.0294 17.25 18.6478 17.25 18.25V6.25C17.2501 6.15148 17.2307 6.05391 17.1931 5.96286C17.1555 5.87182 17.1003 5.78908 17.0306 5.71938ZM12 2.81031L14.6897 5.5H12V2.81031Z" fill="white"/>
</svg>
